<svg xmlns="http://www.w3.org/2000/svg" version="1.0" width="512.000000pt" height="512.000000pt" viewBox="0 0 512.000000 512.000000" preserveAspectRatio="xMidYMid meet">

<g transform="translate(0.000000,512.000000) scale(0.100000,-0.100000)" fill="#0689b0" stroke="none">
<path d="M4103 4911 c-98 -27 -184 -72 -262 -136 -82 -67 -2095 -2082 -2110 -2111 -6 -12 -63 -231 -127 -485 -113 -455 -115 -465 -104 -518 17 -77 84 -144 161 -161 53 -11 63 -9 518 104 254 64 473 121 485 127 29 15 2044 2028 2111 2109 180 219 205 527 63 768 -42 72 -158 188 -230 230 -101 60 -189 84 -318 88 -91 3 -130 0 -187 -15z m280 -439 c106 -57 150 -191 100 -302 -16 -35 -251 -275 -1029 -1052 l-1009 -1007 -220 -55 c-121 -30 -220 -54 -222 -53 -1 2 23 101 53 222 l55 220 1007 1008 c554 555 1019 1015 1034 1023 74 39 153 38 231 -4z" fill="#0689b0"/>
<path d="M725 4465 c-245 -55 -423 -223 -492 -466 -17 -61 -18 -146 -18 -1654 l0 -1590 23 -75 c37 -119 79 -187 167 -275 88 -88 156 -130 275 -167 l75 -23 1590 0 c1507 0 1593 1 1654 18 219 62 380 217 453 432 l23 70 3 815 c2 624 0 825 -9 860 -26 92 -132 160 -229 147 -62 -8 -125 -51 -157 -105 l-28 -47 -5 -810 c-5 -891 -1 -835 -67 -897 -65 -62 44 -58 -1629 -58 -1179 0 -1536 3 -1568 12 -53 16 -121 84 -135 134 -8 27 -11 513 -11 1567 0 1674 -4 1565 58 1630 62 66 6 62 897 67 l810 5 47 28 c84 49 124 149 97 244 -16 59 -78 124 -135 141 -62 18 -1605 16 -1689 -3z" fill="#0689b0"/>
</g>
</svg>